<svg width="24" height="29" viewBox="0 0 24 29" fill="none" xmlns="http://www.w3.org/2000/svg">
<path d="M23.4237 22.0659C23.0153 23.0169 22.511 23.9238 21.9187 24.7725C21.1265 25.9013 20.4784 26.6824 19.9791 27.1164C19.205 27.828 18.3749 28.1932 17.4865 28.2136C16.8489 28.2136 16.0801 28.0322 15.1847 27.6641C14.2863 27.2978 13.4609 27.1158 12.7061 27.1158C11.9145 27.1158 11.0658 27.2978 10.1575 27.6641C9.24809 28.0322 8.51542 28.2241 7.95542 28.2428C7.10376 28.2795 6.25442 27.9044 5.40626 27.1164C4.86551 26.6439 4.18942 25.8354 3.37859 24.6897C2.50884 23.4659 1.79367 22.0472 1.23367 20.429C0.634008 18.682 0.333008 16.9897 0.333008 15.3517C0.333008 13.4751 0.738424 11.8569 1.55042 10.5007C2.18917 9.41103 3.03792 8.55237 4.10076 7.9212C5.14346 7.29723 6.33319 6.96145 7.54826 6.9482C8.22492 6.9482 9.11217 7.15762 10.2153 7.56887C11.3148 7.98128 12.0207 8.1907 12.3304 8.1907C12.5614 8.1907 13.346 7.9457 14.6754 7.45803C15.9331 7.00537 16.9942 6.81812 17.8633 6.8922C20.2194 7.08237 21.9893 8.01103 23.1658 9.68403C21.0594 10.9604 20.017 12.7483 20.038 15.0419C20.0567 16.8287 20.7048 18.3156 21.9788 19.4957C22.5563 20.044 23.2008 20.4675 23.9178 20.768C23.7674 21.2059 23.6027 21.6388 23.4237 22.0659ZM18.0208 0.805701C18.0208 2.2057 17.5093 3.51353 16.4896 4.72337C15.2588 6.16245 13.7707 6.9937 12.1566 6.86245C12.1349 6.68634 12.124 6.50906 12.1239 6.33162C12.1239 4.98762 12.709 3.54912 13.7485 2.37253C14.2677 1.77695 14.9268 1.2817 15.7272 0.886784C16.5263 0.497701 17.2812 0.282451 17.9917 0.245117C18.0121 0.432367 18.0208 0.619617 18.0208 0.805117V0.805701Z" fill="white"/>
</svg>
