<svg width="12" height="13" viewBox="0 0 12 13" fill="none" xmlns="http://www.w3.org/2000/svg">
<path d="M6.20672 9.44075L8.5711 10.9385C8.87335 11.1298 9.24835 10.8451 9.15872 10.4923L8.47585 7.80538C8.45656 7.73054 8.45878 7.65177 8.48227 7.57813C8.50575 7.5045 8.54954 7.43899 8.6086 7.38913L10.7288 5.62475C11.0071 5.393 10.8638 4.93063 10.5057 4.90738L7.7371 4.72738C7.66255 4.72209 7.59105 4.69574 7.5309 4.65139C7.47075 4.60704 7.42444 4.54652 7.39735 4.47688L6.3646 1.87663C6.33648 1.80273 6.28656 1.73913 6.22146 1.69425C6.15636 1.64937 6.07916 1.62534 6.0001 1.62534C5.92103 1.62534 5.84383 1.64937 5.77873 1.69425C5.71364 1.73913 5.66372 1.80273 5.6356 1.87663L4.60285 4.47688C4.57581 4.54659 4.52952 4.60719 4.46937 4.65161C4.40922 4.69603 4.33768 4.72243 4.2631 4.72775L1.49447 4.90775C1.13672 4.93063 0.992723 5.393 1.27135 5.62475L3.3916 7.3895C3.45059 7.43933 3.49434 7.50478 3.51782 7.57834C3.5413 7.6519 3.54356 7.73059 3.52435 7.80538L2.89135 10.2973C2.78372 10.7206 3.2341 11.0623 3.59635 10.8324L5.79385 9.44075C5.85561 9.40149 5.92728 9.38063 6.00047 9.38063C6.07366 9.38063 6.14533 9.40149 6.2071 9.44075H6.20672Z" fill="#CCCCCC"/>
</svg>
